:FULLY-SPECIFIED
:DEGREES
55
root 2.510390043258667 17.337600708007812 1.146939992904663 90.00000933466734 -0.0 -0.0
lhipjoint -5.528973971617621e-07 -1.7075472925031877e-06 5.635377011264426e-07
lfemur -18.003174831312396 23.730454082455463 -14.685468498586648
ltibia 20.93685548550147 -9.123639481029741 6.711538965732697
lfoot -1.2264630250350455 11.41028436231246 0.8664744897349383
ltoes -7.5976633761012335 3.14556272719639 2.5858748284907427
rhipjoint -1.4590168159163821e-06 -1.2806604693773908e-06 -1.1362305144035093e-07
rfemur 9.563097267322947 -26.31122056977727 -0.09391338687027621
rtibia 39.54270401106099 18.90345865071719 -9.700865597976689
rfoot 5.332962611961296 -8.223937935251689 1.8554721144527389
rtoes 5.139615324483868 1.892141692559245 1.9449759805536437
lowerback 6.79617525483291 -1.6416261486156327 2.6622167066176217
upperback 0.3982450384911567 -2.113505135351596 3.7301848717974035
thorax -3.3607672603480943 -0.9058598150884648 1.8363347781720094
lowerneck -17.19874759426685 9.096873677219754 -2.973525843372813
upperneck 23.100760159851767 -4.979475989864218 -2.9543029162840466
head 10.361022164278639 -2.886721396097944 -1.6002546255958077
lclavicle -1.1905593500282093e-07 5.336085289072462e-08 1.7916324053945998e-07
lhumerus -77.08909399188899 -30.9938411703871 -27.698170735471106
lradius 1.8216944993550438e-07 2.1417628769482002e-07 21.529808113012372
lwrist -1.2111839240267528e-06 -15.551502334398414 1.5886484896238499e-06
lhand -25.840186818951096 -6.254019171066217 -12.677289575991702
lfingers -9.414104972780149e-07 5.958838404591767e-07 7.125023250159637
lthumb -47.63800813990019 -33.830691940260195 28.31894272347147
rclavicle -2.343282567121354e-08 -1.5207843073856516e-06 -8.563986979746117e-08
rhumerus -78.45833518461228 27.336568567979583 19.111320090180897
rradius -1.8130765956123377e-07 2.1493093408742527e-06 -32.04789986876556
rwrist -3.235195338669187e-07 6.5692618564531005 2.9392093577909495e-07
rhand 13.505642111926155 -3.038374647560676 12.444852262120646
rfingers -4.6239122781278693e-07 1.3831930793101032e-07 -7.125021115725521
rthumb -7.095594953233814 16.115202969241444 -11.710456662182533
56
root 2.119349956512451 17.543699264526367 1.6863499879837036 90.00000933466734 -0.0 -0.0
lhipjoint -5.528973971617621e-07 -1.7075472925031877e-06 5.635377011264426e-07
lfemur -12.49885771411429 27.694931518257228 -6.113220797741928
ltibia 22.753081332983317 -10.033324202053413 7.140467161646682
lfoot -8.91398255558797 14.49549190946462 3.6285081144916553
ltoes -30.510820437567553 14.523774015270352 7.740410914659916
rhipjoint -1.4590168159163821e-06 -1.2806604693773908e-06 -1.1362305144035093e-07
rfemur 2.9888668751354848 -24.232845231761164 0.9434257488018292
rtibia 47.52569933937767 23.183709392226987 -9.960954078928896
rfoot 16.243052157673034 -6.053469875995833 6.799808488584534
rtoes 12.771754507307564 4.322345197364585 5.078730164448728
lowerback 7.070005222621538 0.24796550882524365 2.6068482049977364
upperback 0.2646358127942763 -1.7435889200928756 3.5093936707914524
thorax -3.743528927001493 -1.5859215803442417 1.75646862915511
lowerneck -15.029853466727861 10.368398768582253 -2.6310881194752884
upperneck 22.59609455755245 -5.525070220104368 -2.4960992489269183
head 9.76867230096199 -3.353108483854394 -1.4616360431121047
lclavicle -1.1905593500282093e-07 5.336085289072462e-08 1.7916324053945998e-07
lhumerus -76.94659575523502 -32.195397803891986 -27.54148448836372
lradius 6.132254968043884e-07 1.459569392764521e-07 21.406209009791823
lwrist -1.2475830060234197e-06 -15.960191826028005 1.6328838476891441e-06
lhand -26.086900081961126 -4.863279957930315 -9.823600682267234
lfingers -9.414104972780149e-07 5.958838404591767e-07 7.125023250159637
lthumb -47.55134328461648 -33.20552131043434 31.26256813309208
rclavicle -2.343282567121354e-08 -1.5207843073856516e-06 -8.563986979746117e-08
rhumerus -77.66540486348715 29.4165353400723 19.221866701897554
rradius -8.613243339542632e-07 2.88020548845106e-06 -32.1628007260781
rwrist -2.443603368439702e-07 4.91727174954562 2.2591797957903506e-07
rhand 13.45882970290218 -3.040920600573798 12.49849998295651
rfingers -4.6239122781278693e-07 1.3831930793101032e-07 -7.125021115725521
rthumb -7.151775393591285 16.12101887531971 -11.681826216729133
57
root 1.7637900114059448 17.51449966430664 2.186650037765503 90.00000933466734 -0.0 -0.0
lhipjoint -5.528973971617621e-07 -1.7075472925031877e-06 5.635377011264426e-07
lfemur -9.901312867096346 28.10514243452444 -9.301330267382207
ltibia 20.891118831271772 -9.100921418076632 6.700385266818067
lfoot -3.0291182471314277 12.82418816201846 1.6161074946594074
ltoes -0.3450678803365084 0.134090193744411 0.12524289763406274
rhipjoint -1.4590168159163821e-06 -1.2806604693773908e-06 -1.1362305144035093e-07
rfemur -4.688672575101286 -23.09321792346078 3.5817234531111835
rtibia 56.11468954142538 27.626385447294272 -9.52736854777461
rfoot 21.03272402069177 -1.714063719858203 9.08496438862819
rtoes 20.168341383111855 6.224497385926129 8.345258316610394
lowerback 7.361202227035393 1.8751661111508244 2.2682923764263063
upperback 0.5636503689196067 -1.1126609744052318 2.898869741310458
thorax -3.642168919718504 -1.9042695472042488 1.4733616636480185
lowerneck -16.26553884796801 9.614450044597687 -2.670520295657653
upperneck 23.21641916816218 -4.719514294298479 -2.4319300485614717
head 10.209701884537944 -2.9550004493530344 -1.4584230794378485
lclavicle -1.1905593500282093e-07 5.336085289072462e-08 1.7916324053945998e-07
lhumerus -78.07919138378487 -31.863133006432964 -24.065343380103062
lradius 9.066385361675098e-07 -7.144572598723822e-07 20.72631661188312
lwrist -1.1759674994828412e-06 -15.152796871788091 1.545675888100409e-06
lhand -25.875488651676307 -5.15425583496979 -10.493095824711883
lfingers -9.414104972780149e-07 5.958838404591767e-07 7.125023250159637
lthumb -47.39120608443094 -33.30821661970007 30.486863549053734
rclavicle -2.343282567121354e-08 -1.5207843073856516e-06 -8.563986979746117e-08
rhumerus -78.20275633605958 29.99557487224389 18.35336546024812
rradius -1.2607238366342292e-06 2.7596721349098243e-06 -31.764901225789842
rwrist -2.3520275658291315e-07 4.727924818487703 2.1787799534416941e-07
rhand 13.161986266478841 -3.0189226956913027 12.692032539315175
rfingers -4.6239122781278693e-07 1.3831930793101032e-07 -7.125021115725521
rthumb -7.466574970455764 16.21731258978584 -11.61523614118974
58
root 1.402899980545044 17.606300354003906 2.637769937515259 90.00000933466734 -0.0 -0.0
lhipjoint -5.528973971617621e-07 -1.7075472925031877e-06 5.635377011264426e-07
lfemur -5.883372552453128 28.855411394093657 -4.741567267581157
ltibia 21.56830647426915 -9.438268730051794 6.863790285634629
lfoot -8.301801238016187 14.092669550332072 3.4105292438764567
ltoes -20.835696968799 9.457866250327852 6.10358895035174
rhipjoint -1.4590168159163821e-06 -1.2806604693773908e-06 -1.1362305144035093e-07
rfemur -10.606731389480677 -23.87487160226621 4.14233171980749
rtibia 61.764382966238976 30.388846919369467 -8.846886192276349
rfoot 12.14740435395576 -0.7385595073717329 4.907584406868426
rtoes 16.020942943600684 5.213801424153962 6.489072447389389
lowerback 7.77649992668697 2.273198586684491 1.764137544210859
upperback 0.5125057523319926 -1.0105317170669699 2.1819156697482094
thorax -3.915981812034206 -2.0851822618542575 1.1261972354014333
lowerneck -15.994224951114886 8.921716891049362 -2.3478583172848424
upperneck 23.261411331772347 -4.015568104567108 -2.024139580581384
head 10.147308106469879 -2.6420454504512816 -1.2993635550372955
lclavicle -1.1905593500282093e-07 5.336085289072462e-08 1.7916324053945998e-07
lhumerus -78.3048130226379 -30.94952007286289 -22.442960008813472
lradius 1.0765651405787503e-06 1.8539266221635568e-07 20.30502200614027
lwrist -1.2710986533385384e-06 -16.222389127886455 1.6613655367505877e-06
lhand -25.58325217784814 -5.17115756495781 -10.661686237768954
lfingers -9.414104972780149e-07 5.958838404591767e-07 7.125023250159637
lthumb -47.06773515552831 -33.2667095601139 30.15917497833862
rclavicle -2.343282567121354e-08 -1.5207843073856516e-06 -8.563986979746117e-08
rhumerus -78.04371538123583 30.608386274766602 18.97751326924576
rradius -6.507437778268062e-07 3.856386623728832e-06 -31.776194943582457
rwrist -2.6080896976793927e-07 5.258303094804356 2.402703725235452e-07
rhand 11.988151663267743 -2.878632958016768 13.306475503275877
rfingers -4.6239122781278693e-07 1.3831930793101032e-07 -7.125021115725521
rthumb -8.6667997170725 16.666416310734398 -11.47261837622529
